<?xml version="1.0" encoding="UTF-8"?>
<svg width="464px" height="464px" viewBox="0 0 464 464" version="1.1" xmlns="http://www.w3.org/2000/svg" xmlns:xlink="http://www.w3.org/1999/xlink">
    <!-- Generator: Sketch 52.5 (67469) - http://www.bohemiancoding.com/sketch -->
    <title>Untitled</title>
    <desc>Created with Sketch.</desc>
    <g id="Page-1" stroke="none" stroke-width="1" fill="none" fill-rule="evenodd">
        <rect id="Rectangle" fill="#EC4D42" x="0" y="0" width="464" height="464"></rect>
        <path d="M-100.057,131.553 L-66.452,131.553 C-57.0139528,131.553 -49.7448588,133.793311 -44.6445,138.274 C-39.5441412,142.754689 -36.994,148.379299 -36.994,155.148 C-36.994,160.296026 -38.4001526,164.776648 -41.2125,168.59 C-44.0248474,172.403352 -48.2909714,174.977327 -54.011,176.312 C-48.3863052,177.265338 -43.8818503,179.696314 -40.4975,183.605 C-37.1131497,187.513686 -35.421,191.946642 -35.421,196.904 C-35.421,207.962722 -40.8072795,215.446314 -51.58,219.355 C-55.58402,220.785007 -60.4936376,221.5 -66.309,221.5 L-100.057,221.5 L-100.057,131.553 Z M-66.595,211.633 C-59.7309657,211.633 -54.8213481,210.25068 -51.866,207.486 C-48.9106519,204.72132 -47.433,201.051023 -47.433,196.475 C-47.433,191.898977 -49.0536505,188.252514 -52.295,185.5355 C-55.5363495,182.818486 -60.3029685,181.46 -66.595,181.46 L-88.76,181.46 L-88.76,211.633 L-66.595,211.633 Z M-88.76,171.736 L-66.738,171.736 C-61.208639,171.736 -56.7995164,170.377514 -53.5105,167.6605 C-50.2214836,164.943486 -48.577,161.20169 -48.577,156.435 C-48.577,151.66831 -50.1738174,147.950347 -53.3675,145.281 C-56.5611826,142.611653 -61.0179714,141.277 -66.738,141.277 L-88.76,141.277 L-88.76,171.736 Z M-24.839,241.377 C-20.1676433,244.999685 -15.2580257,246.811 -10.11,246.811 C-6.2966476,246.811 -3.00768049,244.904352 -0.243,241.091 C1.75901001,238.32632 3.57032523,234.131695 5.191,228.507 L7.193,221.5 L-20.835,153.146 L-8.251,153.146 L12.484,207.629 L28.643,153.146 L40.083,153.146 L14.486,235.085 C12.2933224,242.044368 9.40951788,247.382981 5.8345,251.101 C2.25948212,254.819019 -2.26880592,256.678 -7.7505,256.678 C-13.2321941,256.678 -18.9283038,255.009683 -24.839,251.673 L-24.839,241.377 Z M-37.423,267.293 C-37.423,274.729037 -39.4011469,280.734977 -43.3575,285.311 C-47.3138531,289.887023 -53.1529614,292.842327 -60.875,294.177 L-35.135,331.5 L-49.721,331.5 L-73.03,294.749 L-88.76,294.749 L-88.76,331.5 L-100.057,331.5 L-100.057,241.553 L-68.74,241.553 C-58.6346161,241.553 -50.8888603,243.983976 -45.5025,248.846 C-40.1161397,253.708024 -37.423,259.856963 -37.423,267.293 Z M-69.598,286.884 C-62.8292995,286.884 -57.7051841,285.239516 -54.2255,281.9505 C-50.7458159,278.661484 -49.006,274.32386 -49.006,268.9375 C-49.006,263.55114 -50.6981497,259.261183 -54.0825,256.0675 C-57.4668503,252.873817 -62.3526347,251.277 -68.74,251.277 L-88.76,251.277 L-88.76,286.884 L-69.598,286.884 Z M12.198,261.43 C21.731381,261.43 29.4294707,264.528302 35.2925,270.725 C41.1555293,276.921698 44.087,285.787609 44.087,297.323 C44.087,308.763057 41.1555293,317.581302 35.2925,323.778 C29.4294707,329.974698 21.731381,333.073 12.198,333.073 C2.664619,333.073 -5.03347068,329.974698 -10.8965,323.778 C-16.7595293,317.581302 -19.691,308.763057 -19.691,297.323 C-19.691,285.787609 -16.7595293,276.921698 -10.8965,270.725 C-5.03347068,264.528302 2.664619,261.43 12.198,261.43 Z M32.647,297.323 C32.647,289.124292 30.9310172,282.71319 27.499,278.0895 C24.0669828,273.46581 19.0381998,271.154 12.4125,271.154 C5.78680021,271.154 0.71035097,273.46581 -2.817,278.0895 C-6.34435097,282.71319 -8.108,289.100459 -8.108,297.2515 C-8.108,305.402541 -6.43968335,311.78981 -3.103,316.4135 C0.23368335,321.03719 5.21480021,323.349 11.8405,323.349 C18.4661998,323.349 23.5903152,321.03719 27.213,316.4135 C30.8356848,311.78981 32.647,305.426374 32.647,297.323 Z M76.977,273.299 C81.5530229,265.386294 88.2262895,261.43 96.997,261.43 C105.767711,261.43 113.060638,264.695134 118.876,271.2255 C124.691362,277.755866 127.599,286.383446 127.599,297.1085 C127.599,307.833554 124.643696,316.5088 118.733,323.1345 C112.822304,329.7602 105.624709,333.073 97.14,333.073 C92.5639771,333.073 88.4408517,331.929011 84.7705,329.641 C81.1001483,327.352989 78.2163438,323.968689 76.119,319.488 L73.545,331.5 L65.68,331.5 L65.68,234.117 L76.977,234.117 L76.977,273.299 Z M96.282,271.44 C90.8479728,271.44 86.3196848,273.179816 82.697,276.6595 C79.0743152,280.139184 77.1676676,284.977302 76.977,291.174 L76.977,302.328 C76.977,308.620031 78.8598145,313.648815 82.6255,317.4145 C86.3911855,321.180185 90.9433066,323.063 96.282,323.063 C101.620693,323.063 106.244314,320.703524 110.153,315.9845 C114.061686,311.265476 116.016,304.997372 116.016,297.18 C116.016,289.362628 114.085519,283.118357 110.2245,278.447 C106.363481,273.775643 101.716027,271.44 96.282,271.44 Z M173.788,261.43 C183.321381,261.43 191.019471,264.528302 196.8825,270.725 C202.745529,276.921698 205.677,285.787609 205.677,297.323 C205.677,308.763057 202.745529,317.581302 196.8825,323.778 C191.019471,329.974698 183.321381,333.073 173.788,333.073 C164.254619,333.073 156.556529,329.974698 150.6935,323.778 C144.830471,317.581302 141.899,308.763057 141.899,297.323 C141.899,285.787609 144.830471,276.921698 150.6935,270.725 C156.556529,264.528302 164.254619,261.43 173.788,261.43 Z M194.237,297.323 C194.237,289.124292 192.521017,282.71319 189.089,278.0895 C185.656983,273.46581 180.6282,271.154 174.0025,271.154 C167.3768,271.154 162.300351,273.46581 158.773,278.0895 C155.245649,282.71319 153.482,289.100459 153.482,297.2515 C153.482,305.402541 155.150317,311.78981 158.487,316.4135 C161.823683,321.03719 166.8048,323.349 173.4305,323.349 C180.0562,323.349 185.180315,321.03719 188.803,316.4135 C192.425685,311.78981 194.237,305.426374 194.237,297.323 Z M263.02,329.498 C254.821292,333.311352 247.337701,334.121678 240.569,331.929 C235.706976,330.403659 232.27501,327.210024 230.273,322.348 C229.224328,319.964655 228.7,317.104683 228.7,313.768 L228.7,271.726 L217.689,271.726 L217.689,263.146 L228.7,263.146 L228.7,244.127 L239.854,244.127 L239.854,263.146 L261.304,263.146 L261.304,271.726 L239.854,271.726 L239.854,313.625 C239.854,320.584368 243.095301,324.064 249.578,324.064 C253.105351,324.064 257.061645,323.206009 261.447,321.49 L263.02,329.498 Z M277.463,279.877 C277.463,274.252305 279.870143,269.771683 284.6845,266.435 C289.498857,263.098317 296.005292,261.43 304.204,261.43 C312.402708,261.43 318.81381,263.145983 323.4375,266.578 C328.06119,270.010017 330.468332,274.34764 330.659,279.591 L319.648,279.591 C318.789996,273.394302 313.546715,270.296 303.918,270.296 C299.246643,270.296 295.647846,271.344656 293.1215,273.442 C290.595154,275.539344 289.332,277.803488 289.332,280.2345 C289.332,282.665512 290.285324,284.715158 292.192,286.3835 C294.098676,288.051842 297.149312,289.50566 301.344,290.745 L315.072,295.321 C320.887362,297.132342 325.344151,299.444153 328.4425,302.2565 C331.540849,305.068847 333.09,308.929809 333.09,313.8395 C333.09,318.749191 330.563692,323.182147 325.511,327.1385 C320.458308,331.094853 313.403712,333.073 304.347,333.073 C295.290288,333.073 288.235692,331.047187 283.183,326.9955 C278.130308,322.943813 275.461001,317.724365 275.175,311.337 L286.043,311.337 C286.233668,315.627021 287.973484,318.844489 291.2625,320.9895 C294.551516,323.134511 298.674642,324.207 303.632,324.207 C308.589358,324.207 312.68865,323.158344 315.93,321.061 C319.17135,318.963656 320.792,316.461181 320.792,313.5535 C320.792,310.645819 319.838676,308.429341 317.932,306.904 C316.025324,305.378659 312.927021,304.044006 308.637,302.9 L295.338,298.467 C283.421274,294.939649 277.463,288.743044 277.463,279.877 Z" id="By-Robots" fill="#FFFFFF" transform="translate(116.516500, 232.341378) rotate(90.000000) translate(-116.516500, -232.341378) "></path>
    </g>
</svg>